<svg xmlns="http://www.w3.org/2000/svg" viewBox="0 0 200 120" role="img" aria-label="RuMaZ sluitsteen beeldmerk"><g style="color:#082c22"><polygon points="4.0,112.0 4.1,108.6 4.2,105.3 4.5,102.0 4.9,98.6 5.5,95.3 6.1,92.0 6.9,88.8 7.7,85.5 8.7,82.3 9.8,79.2 11.0,76.0 12.3,73.0 13.7,69.9 15.2,66.9 16.9,64.0 18.6,61.1 20.4,58.3 21.4,56.9 52.5,78.7 51.4,80.4 50.3,82.1 49.3,83.9 48.3,85.7 47.4,87.5 46.6,89.3 45.9,91.2 45.2,93.1 44.5,95.0 44.0,97.0 43.5,99.0 43.1,100.9 42.7,102.9 42.4,104.9 42.2,106.9 42.1,109.0 42.0,111.0" fill="currentColor"/><polygon points="26.5,50.3 28.7,47.8 30.9,45.3 33.3,42.9 35.8,40.7 38.3,38.5 40.9,36.4 43.6,34.3 46.3,32.4 49.1,30.6 52.0,28.9 54.9,27.2 57.9,25.7 61.0,24.3 64.0,23.0 67.2,21.8 70.3,20.7 82.1,56.8 80.2,57.5 78.3,58.2 76.4,59.0 74.6,59.9 72.8,60.8 71.0,61.8 69.3,62.8 67.6,63.9 65.9,65.1 64.3,66.3 62.7,67.6 61.2,68.9 59.7,70.3 58.3,71.7 56.9,73.2 55.6,74.7" fill="currentColor"/><path d="M70 11 H130 L118 56 H82 Z" fill="currentColor"/><polygon points="129.7,20.7 132.8,21.8 136.0,23.0 139.0,24.3 142.1,25.7 145.1,27.2 148.0,28.9 150.9,30.6 153.7,32.4 156.4,34.3 159.1,36.4 161.7,38.5 164.2,40.7 166.7,42.9 169.1,45.3 171.3,47.8 173.5,50.3 144.4,74.7 143.1,73.2 141.7,71.7 140.3,70.3 138.8,68.9 137.3,67.6 135.7,66.3 134.1,65.1 132.4,63.9 130.7,62.8 129.0,61.8 127.2,60.8 125.4,59.9 123.6,59.0 121.7,58.2 119.8,57.5 117.9,56.8" fill="currentColor"/><polygon points="178.6,56.9 180.5,59.7 182.3,62.6 184.0,65.5 185.5,68.4 187.0,71.4 188.4,74.5 189.6,77.6 190.8,80.7 191.8,83.9 192.7,87.2 193.5,90.4 194.2,93.7 194.8,97.0 195.3,100.3 195.6,103.6 195.9,107.0 196.0,110.3 196.0,112.0 158.0,112.0 158.0,110.0 157.9,108.0 157.7,105.9 157.4,103.9 157.1,101.9 156.7,99.9 156.3,98.0 155.8,96.0 155.2,94.1 154.5,92.2 153.8,90.3 153.0,88.4 152.1,86.6 151.2,84.8 150.2,83.0 149.2,81.3 148.1,79.6" fill="currentColor"/></g></svg>